<?xml version="1.0" standalone="no"?>
<!DOCTYPE svg PUBLIC "-//W3C//DTD SVG 20010904//EN"
 "http://www.w3.org/TR/2001/REC-SVG-20010904/DTD/svg10.dtd">
<svg version="1.0" xmlns="http://www.w3.org/2000/svg"
 width="260.000000pt" height="260.000000pt" viewBox="0 0 260.000000 260.000000"
 preserveAspectRatio="xMidYMid meet">
<metadata>
Created by potrace 1.14, written by Peter Selinger 2001-2017
</metadata>
<g transform="translate(0.000000,260.000000) scale(0.100000,-0.100000)"
fill="#000000" stroke="none">
<path d="M745 2589 c-74 -21 -139 -106 -172 -224 -21 -75 -24 -281 -6 -405 25
-168 33 -149 -82 -182 -238 -69 -393 -172 -456 -302 -71 -149 1 -311 198 -444
63 -43 99 -52 121 -30 20 20 14 65 -11 83 -111 77 -151 111 -186 155 -46 58
-60 118 -41 174 17 52 99 128 187 174 80 41 235 97 287 103 l29 4 43 -140 c23
-77 49 -159 57 -182 15 -40 15 -44 -7 -90 -40 -84 -54 -116 -86 -198 -56 -142
-103 -293 -120 -387 -6 -29 -13 -64 -16 -78 -14 -58 -13 -295 2 -350 60 -223
252 -269 500 -119 111 68 145 116 108 153 -25 25 -48 19 -118 -29 -257 -180
-408 -123 -407 155 1 162 61 422 141 605 9 22 27 66 40 97 12 32 25 58 29 58
4 0 20 -30 35 -67 63 -147 182 -371 270 -507 281 -435 565 -660 765 -606 29 7
59 27 90 58 39 39 52 62 76 136 26 81 29 103 29 225 1 121 -8 238 -19 281 -2
8 -7 31 -10 50 -11 68 -54 236 -85 335 -51 159 -140 378 -161 397 -24 20 -53
13 -69 -17 -11 -20 -5 -40 43 -161 138 -349 201 -622 202 -874 0 -185 -44
-301 -123 -324 -49 -14 -129 8 -203 57 -244 161 -508 531 -721 1011 -64 145
-64 132 -1 248 31 57 86 150 122 208 l67 105 124 0 c646 -2 1288 -256 1290
-510 0 -39 -33 -102 -73 -139 -39 -35 -124 -91 -153 -100 -39 -12 -72 -51 -67
-78 7 -37 38 -52 77 -37 120 48 245 151 287 236 35 69 33 178 -3 249 -63 122
-223 240 -444 327 -87 34 -279 92 -340 102 -17 2 -65 11 -108 19 -42 9 -109
18 -149 22 -40 3 -74 8 -77 9 -3 2 -66 6 -140 10 -74 4 -136 8 -137 9 -1 1 39
51 88 111 251 306 505 482 648 450 43 -9 89 -61 107 -120 13 -46 20 -191 10
-240 -17 -91 -17 -114 3 -134 20 -20 52 -19 70 3 6 7 13 37 17 67 3 30 8 57
10 61 7 11 6 169 -1 213 -32 210 -175 306 -365 243 -183 -59 -446 -290 -660
-579 l-60 -81 -78 -4 c-42 -2 -96 -6 -119 -9 -110 -13 -138 -17 -145 -21 -6
-4 -14 23 -23 86 -20 138 -23 177 -20 275 7 245 86 343 233 291 49 -18 143
-76 186 -117 40 -37 82 -39 98 -4 17 37 0 65 -79 123 -138 104 -250 140 -348
111z m215 -849 c0 -3 -4 -10 -9 -15 -6 -6 -43 -67 -84 -138 -56 -96 -77 -123
-82 -110 -27 69 -71 234 -63 239 11 7 37 11 133 20 39 4 71 8 73 9 6 5 32 1
32 -5z"/>
<path d="M1269 1460 c-74 -20 -119 -86 -115 -167 5 -89 64 -153 141 -153 82 0
141 56 151 144 13 105 -84 201 -177 176z"/>
</g>
</svg>
